COVER ::
 
http://i.minus.com/idBC9I8B5jkEN.png


SCREEN ::
 
http://i.minus.com/ibtMd6ju6NiyZr.png
 
http://i.minus.com/i6ug4Awk94wdl.png
 
http://i.minus.com/ikO6MjbU4LJM9.png
 
http://i.minus.com/iR5skn0Sg3v1p.png
 
http://i.minus.com/iboGklcmLGu2qV.png
 
http://i.minus.com/ig2eOdSCC7k6g.png
 
http://i.minus.com/ibsUTh6V8XHbzH.png
 
http://i.minus.com/igiURAuBzM1DY.jpg


General Info ::
Format                           : AVI
Format/Info                      : Audio Video Interleave
File size                        : 82.1 MiB
Duration                         : 3mn 56s
Overall bit rate                 : 2 909 Kbps


Video Info ::
ID                               : 0
Format                           : AVC
Format/Info                      : Advanced Video Codec
Format profile                   : High@L5.1
Format settings, CABAC           : Yes
Format settings, ReFrames        : 2 frames
Codec ID                         : H264
Duration                         : 10s 0ms
Bit rate                         : 2 578 Kbps
Width                            : 1 280 pixels
Height                           : 544 pixels
Display aspect ratio             : 2.35:1
Frame rate                       : 30.000 fps
Color space                      : YUV
Chroma subsampling               : 4:2:0
Bit depth                        : 8 bits
Scan type                        : Progressive
Bits/(Pixel*Frame)               : 0.123
Stream size                      : 72.7 MiB (89%)


Audio Info ::
ID                               : 1
Format                           : MPEG Audio
Format version                   : Version 1
Format profile                   : Layer 3
Codec ID                         : 55
Codec ID/Hint                    : MP3
Duration                         : 3mn 56s
Bit rate mode                    : Constant
Bit rate                         : 320 Kbps
Channel(s)                       : 2 channels
Sampling rate                    : 48.0 KHz
Compression mode                 : Lossy
Stream size                      : 9.03 MiB (11%)